<?xml version="1.0" encoding="UTF-8"?>
<!DOCTYPE svg PUBLIC "-//W3C//DTD SVG 1.1//EN" "http://www.w3.org/Graphics/SVG/1.1/DTD/svg11.dtd">
<svg xmlns="http://www.w3.org/2000/svg" version="1.1" width="1355px" height="460px" style="shape-rendering:geometricPrecision; text-rendering:geometricPrecision; image-rendering:optimizeQuality; fill-rule:evenodd; clip-rule:evenodd" xmlns:xlink="http://www.w3.org/1999/xlink">
<g><path style="opacity:1" fill="#fefefe" d="M -0.5,-0.5 C 39.5,-0.5 79.5,-0.5 119.5,-0.5C 175.258,21.9803 231.591,43.3137 288.5,63.5C 290.936,64.871 293.603,65.871 296.5,66.5C 308.657,71.2907 320.99,75.624 333.5,79.5C 341.241,82.8627 349.241,85.8627 357.5,88.5C 361.522,90.7339 365.856,92.4005 370.5,93.5C 378.583,97.0842 386.917,100.084 395.5,102.5C 399.522,104.734 403.856,106.401 408.5,107.5C 409.609,107.557 410.609,107.89 411.5,108.5C 413.936,109.871 416.603,110.871 419.5,111.5C 434.691,117.468 450.024,123.134 465.5,128.5C 467.936,129.871 470.603,130.871 473.5,131.5C 505.989,144.13 538.656,156.463 571.5,168.5C 573.936,169.871 576.603,170.871 579.5,171.5C 581.515,172.924 583.848,173.59 586.5,173.5C 587.5,173.5 588.5,173.5 589.5,173.5C 590.906,173.027 591.573,172.027 591.5,170.5C 591.414,169.504 591.748,168.671 592.5,168C 594.332,167.252 595.999,166.252 597.5,165C 610.199,164.821 622.865,164.155 635.5,163C 636.804,162.196 637.471,161.029 637.5,159.5C 625.218,147.545 613.551,134.879 602.5,121.5C 601.032,120.221 600.365,118.554 600.5,116.5C 602.099,116.768 603.432,116.434 604.5,115.5C 615.219,115.19 625.885,115.523 636.5,116.5C 637.167,129.66 637.833,142.66 638.5,155.5C 639.659,165.992 639.825,176.659 639,187.5C 638.768,188.737 638.268,189.737 637.5,190.5C 628.943,189.755 620.943,187.422 613.5,183.5C 609.37,180.676 604.703,179.009 599.5,178.5C 597.898,176.926 595.898,176.259 593.5,176.5C 593.167,176.5 592.833,176.5 592.5,176.5C 591.791,175.596 590.791,175.263 589.5,175.5C 589.5,200.5 589.5,225.5 589.5,250.5C 589.5,254.167 589.5,257.833 589.5,261.5C 592.167,261.5 594.833,261.5 597.5,261.5C 628.664,262.332 659.997,262.832 691.5,263C 692.5,264 693.5,265 694.5,266C 658.998,266.167 623.664,266.667 588.5,267.5C 588.5,268.5 588.5,269.5 588.5,270.5C 587.683,282.668 587.683,294.668 588.5,306.5C 591.725,307.237 595.059,307.903 598.5,308.5C 633.183,309.183 668.016,309.85 703,310.5C 705.708,310.133 708.208,309.466 710.5,308.5C 716.5,308.5 722.5,308.5 728.5,308.5C 740.993,309.66 753.66,309.827 766.5,309C 769.506,308.668 772.34,307.834 775,306.5C 775.809,286.79 775.642,267.123 774.5,247.5C 774.5,246.833 774.5,246.167 774.5,245.5C 776.806,245.993 779.139,246.326 781.5,246.5C 782.708,247.234 784.041,247.567 785.5,247.5C 795.473,251.919 805.806,255.585 816.5,258.5C 820.266,260.539 824.266,262.205 828.5,263.5C 830.515,264.924 832.848,265.59 835.5,265.5C 844.709,269.857 854.042,274.023 863.5,278C 869.233,279.879 874.9,281.713 880.5,283.5C 882.32,285.448 884.654,286.448 887.5,286.5C 892.471,288.324 897.471,289.991 902.5,291.5C 904.214,292.738 906.214,293.405 908.5,293.5C 909.635,295.213 911.302,295.88 913.5,295.5C 915.033,297.245 917.033,298.245 919.5,298.5C 920.167,298.5 920.833,298.5 921.5,298.5C 922.635,300.213 924.302,300.88 926.5,300.5C 931.643,302.241 936.643,304.241 941.5,306.5C 944.053,308.584 947.053,309.917 950.5,310.5C 951.167,310.5 951.833,310.5 952.5,310.5C 955.053,312.584 958.053,313.917 961.5,314.5C 962.167,314.5 962.833,314.5 963.5,314.5C 965.033,316.245 967.033,317.245 969.5,317.5C 970.167,317.5 970.833,317.5 971.5,317.5C 973.033,319.245 975.033,320.245 977.5,320.5C 978.167,320.5 978.833,320.5 979.5,320.5C 980.635,322.213 982.302,322.88 984.5,322.5C 989.213,324.174 993.88,325.84 998.5,327.5C 1000.03,329.245 1002.03,330.245 1004.5,330.5C 1016.26,334.197 1027.6,338.864 1038.5,344.5C 1041.05,346.584 1044.05,347.917 1047.5,348.5C 1050.34,348.56 1053.01,349.226 1055.5,350.5C 1059.75,352.921 1064.42,354.588 1069.5,355.5C 1070.17,355.5 1070.83,355.5 1071.5,355.5C 1073.03,357.245 1075.03,358.245 1077.5,358.5C 1079.83,359.167 1082.17,359.833 1084.5,360.5C 1086.03,362.245 1088.03,363.245 1090.5,363.5C 1092.83,364.167 1095.17,364.833 1097.5,365.5C 1099.03,367.245 1101.03,368.245 1103.5,368.5C 1104.17,368.5 1104.83,368.5 1105.5,368.5C 1107.03,370.245 1109.03,371.245 1111.5,371.5C 1115.22,372.519 1118.89,373.852 1122.5,375.5C 1124.62,377.655 1127.28,378.655 1130.5,378.5C 1130.84,379.338 1131.51,379.672 1132.5,379.5C 1150.88,385.524 1169.22,392.024 1187.5,399C 1238.06,418.781 1288.73,438.281 1339.5,457.5C 1341.17,458.167 1342.83,458.833 1344.5,459.5C 896.167,459.5 447.833,459.5 -0.5,459.5C -0.5,306.167 -0.5,152.833 -0.5,-0.5 Z"/></g>
<g><path style="opacity:1" fill="#2b3205" d="M 119.5,-0.5 C 241.167,-0.5 362.833,-0.5 484.5,-0.5C 771.333,0.499806 1058.33,0.833139 1345.5,0.5C 1344.54,151.666 1344.54,302.666 1345.5,453.5C 1345.5,454.833 1345.5,456.167 1345.5,457.5C 1343.5,457.5 1341.5,457.5 1339.5,457.5C 1288.73,438.281 1238.06,418.781 1187.5,399C 1169.22,392.024 1150.88,385.524 1132.5,379.5C 1133.87,379.657 1135.21,379.49 1136.5,379C 1134.67,378.252 1133,377.252 1131.5,376C 1087.95,360.061 1044.95,342.728 1002.5,324C 992.902,321.135 983.235,318.468 973.5,316C 953.749,309.128 934.415,301.128 915.5,292C 910.543,290.672 905.543,290.006 900.5,290C 901.416,290.278 902.082,290.778 902.5,291.5C 897.471,289.991 892.471,288.324 887.5,286.5C 885.491,284.935 883.157,283.935 880.5,283.5C 874.9,281.713 869.233,279.879 863.5,278C 854.042,274.023 844.709,269.857 835.5,265.5C 833.485,264.076 831.152,263.41 828.5,263.5C 824.266,262.205 820.266,260.539 816.5,258.5C 817.55,258.095 817.55,257.429 816.5,256.5C 813.702,254.87 811.035,253.037 808.5,251C 804.083,250.861 800.083,249.528 796.5,247C 792.163,246.248 787.829,245.914 783.5,246C 784.416,246.278 785.082,246.778 785.5,247.5C 784.041,247.567 782.708,247.234 781.5,246.5C 779.485,245.076 777.152,244.41 774.5,244.5C 773.081,243.549 771.415,243.216 769.5,243.5C 769.996,219.662 769.996,195.995 769.5,172.5C 769.389,171.883 769.056,171.383 768.5,171C 754.504,170.5 740.504,170.333 726.5,170.5C 723.5,170.5 720.5,170.5 717.5,170.5C 733.658,169.504 749.991,169.17 766.5,169.5C 766.714,167.856 766.38,166.356 765.5,165C 734.997,164.832 704.664,164.332 674.5,163.5C 705.907,163.825 737.24,163.492 768.5,162.5C 769.166,154.841 769.5,147.007 769.5,139C 769.498,130.804 768.831,122.97 767.5,115.5C 726.5,115.5 685.5,115.5 644.5,115.5C 644.5,131.5 644.5,147.5 644.5,163.5C 643.51,157.69 643.177,151.69 643.5,145.5C 642.167,145.5 640.833,145.5 639.5,145.5C 639.666,135.828 639.5,126.161 639,116.5C 638.5,116 638,115.5 637.5,115C 621.994,114.172 606.661,114.339 591.5,115.5C 590.833,115.5 590.5,115.833 590.5,116.5C 589.503,135.326 589.17,154.326 589.5,173.5C 588.5,173.5 587.5,173.5 586.5,173.5C 584.485,172.076 582.152,171.41 579.5,171.5C 576.603,170.871 573.936,169.871 571.5,168.5C 569.398,164.374 566.065,161.54 561.5,160C 548.621,156.262 535.954,151.929 523.5,147C 512.888,141.195 501.888,136.195 490.5,132C 454.721,120.519 419.388,107.852 384.5,94C 368.88,88.7379 353.214,83.5713 337.5,78.5C 336.151,78.8457 334.817,79.179 333.5,79.5C 320.99,75.624 308.657,71.2907 296.5,66.5C 294.383,64.3455 291.716,63.3455 288.5,63.5C 231.591,43.3137 175.258,21.9803 119.5,-0.5 Z"/></g>
<g><path style="opacity:1" fill="#f4fe40" d="M 1346.5,1.5 C 1348.9,1.39297 1350.74,2.39297 1352,4.5C 1352.3,70.3352 1352.8,136.169 1353.5,202C 1353.32,218.839 1352.98,235.672 1352.5,252.5C 1351.51,260.316 1351.17,268.316 1351.5,276.5C 1351.5,277.5 1351.5,278.5 1351.5,279.5C 1351.28,294.586 1351.28,309.586 1351.5,324.5C 1351.67,368.168 1351.5,411.835 1351,455.5C 1349.56,457.155 1347.72,457.822 1345.5,457.5C 1345.5,456.167 1345.5,454.833 1345.5,453.5C 1345.65,302.833 1345.98,152.166 1346.5,1.5 Z"/></g>
<g><path style="opacity:1" fill="#74795d" d="M 288.5,63.5 C 291.716,63.3455 294.383,64.3455 296.5,66.5C 293.603,65.871 290.936,64.871 288.5,63.5 Z"/></g>
<g><path style="opacity:1" fill="#5c5e51" d="M 357.5,88.5 C 361.553,89.3495 365.553,90.5162 369.5,92C 370.056,92.3826 370.389,92.8826 370.5,93.5C 365.856,92.4005 361.522,90.7339 357.5,88.5 Z"/></g>
<g><path style="opacity:1" fill="#6e6a11" d="M 664.5,89.5 C 641.661,89.1692 618.994,89.5025 596.5,90.5C 595.957,90.44 595.624,90.1067 595.5,89.5C 618.663,88.1714 641.663,88.1714 664.5,89.5 Z"/></g>
<g><path style="opacity:1" fill="#57540f" d="M 678.5,89.5 C 701.67,88.1713 725.003,88.1713 748.5,89.5C 746.49,91.1713 744.157,91.838 741.5,91.5C 742.609,90.71 743.942,90.21 745.5,90C 723.169,89.5 700.836,89.3334 678.5,89.5 Z"/></g>
<g><path style="opacity:1" fill="#7d7714" d="M 596.5,90.5 C 618.994,89.5025 641.661,89.1692 664.5,89.5C 669.167,89.5 673.833,89.5 678.5,89.5C 700.836,89.3334 723.169,89.5 745.5,90C 743.942,90.21 742.609,90.71 741.5,91.5C 693.157,91.7731 644.824,91.4398 596.5,90.5 Z"/></g>
<g><path style="opacity:1" fill="#616256" d="M 395.5,102.5 C 399.553,103.35 403.553,104.516 407.5,106C 408.056,106.383 408.389,106.883 408.5,107.5C 403.856,106.401 399.522,104.734 395.5,102.5 Z"/></g>
<g><path style="opacity:1" fill="#222518" d="M 571.5,168.5 C 538.656,156.463 505.989,144.13 473.5,131.5C 471.383,129.345 468.716,128.345 465.5,128.5C 450.024,123.134 434.691,117.468 419.5,111.5C 417.383,109.345 414.716,108.345 411.5,108.5C 410.609,107.89 409.609,107.557 408.5,107.5C 408.389,106.883 408.056,106.383 407.5,106C 403.553,104.516 399.553,103.35 395.5,102.5C 386.917,100.084 378.583,97.0842 370.5,93.5C 370.389,92.8826 370.056,92.3826 369.5,92C 365.553,90.5162 361.553,89.3495 357.5,88.5C 349.241,85.8627 341.241,82.8627 333.5,79.5C 334.817,79.179 336.151,78.8457 337.5,78.5C 353.214,83.5713 368.88,88.7379 384.5,94C 419.388,107.852 454.721,120.519 490.5,132C 501.888,136.195 512.888,141.195 523.5,147C 535.954,151.929 548.621,156.262 561.5,160C 566.065,161.54 569.398,164.374 571.5,168.5 Z"/></g>
<g><path style="opacity:1" fill="#68695e" d="M 411.5,108.5 C 414.716,108.345 417.383,109.345 419.5,111.5C 416.603,110.871 413.936,109.871 411.5,108.5 Z"/></g>
<g><path style="opacity:1" fill="#fce800" d="M 767.5,115.5 C 768.484,131.089 768.817,146.756 768.5,162.5C 737.24,163.492 705.907,163.825 674.5,163.5C 664.5,163.5 654.5,163.5 644.5,163.5C 644.5,147.5 644.5,131.5 644.5,115.5C 685.5,115.5 726.5,115.5 767.5,115.5 Z"/></g>
<g><path style="opacity:1" fill="#edf19f" d="M 590.5,116.5 C 590.5,115.833 590.833,115.5 591.5,115.5C 595.833,115.5 600.167,115.5 604.5,115.5C 603.432,116.434 602.099,116.768 600.5,116.5C 600.365,118.554 601.032,120.221 602.5,121.5C 600.801,121.66 599.134,121.494 597.5,121C 595.239,119.187 592.905,117.687 590.5,116.5 Z"/></g>
<g><path style="opacity:1" fill="#ffeb09" d="M 590.5,116.5 C 592.905,117.687 595.239,119.187 597.5,121C 599.134,121.494 600.801,121.66 602.5,121.5C 613.551,134.879 625.218,147.545 637.5,159.5C 637.471,161.029 636.804,162.196 635.5,163C 622.865,164.155 610.199,164.821 597.5,165C 595.999,166.252 594.332,167.252 592.5,168C 591.748,168.671 591.414,169.504 591.5,170.5C 590.503,152.674 590.17,134.674 590.5,116.5 Z"/></g>
<g><path style="opacity:1" fill="#4e4f00" d="M 767.5,115.5 C 768.831,122.97 769.498,130.804 769.5,139C 769.5,147.007 769.166,154.841 768.5,162.5C 768.817,146.756 768.484,131.089 767.5,115.5 Z"/></g>
<g><path style="opacity:1" fill="#e3d20c" d="M 590.5,116.5 C 590.17,134.674 590.503,152.674 591.5,170.5C 591.573,172.027 590.906,173.027 589.5,173.5C 589.17,154.326 589.503,135.326 590.5,116.5 Z"/></g>
<g><path style="opacity:1" fill="#6f7066" d="M 465.5,128.5 C 468.716,128.345 471.383,129.345 473.5,131.5C 470.603,130.871 467.936,129.871 465.5,128.5 Z"/></g>
<g><path style="opacity:1" fill="#a1a491" d="M 591.5,115.5 C 606.661,114.339 621.994,114.172 637.5,115C 638,115.5 638.5,116 639,116.5C 639.5,126.161 639.666,135.828 639.5,145.5C 638.521,148.625 638.187,151.958 638.5,155.5C 637.833,142.66 637.167,129.66 636.5,116.5C 625.885,115.523 615.219,115.19 604.5,115.5C 600.167,115.5 595.833,115.5 591.5,115.5 Z"/></g>
<g><path style="opacity:1" fill="#1b1e0f" d="M 639.5,145.5 C 640.833,145.5 642.167,145.5 643.5,145.5C 643.177,151.69 643.51,157.69 644.5,163.5C 654.5,163.5 664.5,163.5 674.5,163.5C 704.664,164.332 734.997,164.832 765.5,165C 766.38,166.356 766.714,167.856 766.5,169.5C 749.991,169.17 733.658,169.504 717.5,170.5C 717.667,187.17 717.5,203.837 717,220.5C 715.008,221.328 713.508,222.661 712.5,224.5C 711.691,226.292 711.191,228.292 711,230.5C 710.002,226.424 709.835,222.424 710.5,218.5C 711.117,218.389 711.617,218.056 712,217.5C 712.5,201.837 712.667,186.17 712.5,170.5C 691.816,170.748 671.149,170.415 650.5,169.5C 648.5,169.5 646.5,169.5 644.5,169.5C 643.672,175.319 643.172,181.319 643,187.5C 642.215,189.286 641.049,190.786 639.5,192C 638.184,192.528 637.517,192.028 637.5,190.5C 638.268,189.737 638.768,188.737 639,187.5C 639.825,176.659 639.659,165.992 638.5,155.5C 638.187,151.958 638.521,148.625 639.5,145.5 Z"/></g>
<g><path style="opacity:1" fill="#f8fbaf" d="M 644.5,169.5 C 646.5,169.5 648.5,169.5 650.5,169.5C 649.529,178.416 649.196,187.416 649.5,196.5C 647.589,195.925 645.922,194.925 644.5,193.5C 644.5,185.5 644.5,177.5 644.5,169.5 Z"/></g>
<g><path style="opacity:1" fill="#fbfbfa" d="M 650.5,169.5 C 671.149,170.415 691.816,170.748 712.5,170.5C 712.667,186.17 712.5,201.837 712,217.5C 711.617,218.056 711.117,218.389 710.5,218.5C 708.585,218.784 706.919,218.451 705.5,217.5C 703.485,216.076 701.152,215.41 698.5,215.5C 694.051,214.108 689.718,212.441 685.5,210.5C 682.374,208.01 678.708,206.677 674.5,206.5C 673.609,205.89 672.609,205.557 671.5,205.5C 671.389,204.883 671.056,204.383 670.5,204C 665.554,202.184 660.554,200.684 655.5,199.5C 653.181,199.008 651.181,198.008 649.5,196.5C 649.196,187.416 649.529,178.416 650.5,169.5 Z"/></g>
<g><path style="opacity:1" fill="#eff2a8" d="M 717.5,170.5 C 720.5,170.5 723.5,170.5 726.5,170.5C 727.375,185.826 727.541,201.159 727,216.5C 725.85,220.112 725.017,223.778 724.5,227.5C 727.713,227.19 730.713,227.523 733.5,228.5C 731.278,228.178 729.444,228.845 728,230.5C 727.299,255.835 726.966,281.169 727,306.5C 727.717,307.044 728.217,307.711 728.5,308.5C 722.5,308.5 716.5,308.5 710.5,308.5C 710.5,308.167 710.5,307.833 710.5,307.5C 711.5,307.5 712.5,307.5 713.5,307.5C 714.954,302.577 715.621,297.411 715.5,292C 715.498,288.648 715.165,285.482 714.5,282.5C 713.833,278.167 713.167,273.833 712.5,269.5C 712.389,268.883 712.056,268.383 711.5,268C 689.169,267.5 666.836,267.333 644.5,267.5C 625.833,267.5 607.167,267.5 588.5,267.5C 623.664,266.667 658.998,266.167 694.5,266C 693.5,265 692.5,264 691.5,263C 659.997,262.832 628.664,262.332 597.5,261.5C 611.167,261.5 624.833,261.5 638.5,261.5C 639.833,261.5 641.167,261.5 642.5,261.5C 665.502,261.667 688.502,261.5 711.5,261C 712.488,248.914 712.822,236.747 712.5,224.5C 713.508,222.661 715.008,221.328 717,220.5C 717.5,203.837 717.667,187.17 717.5,170.5 Z"/></g>
<g><path style="opacity:1" fill="#83876f" d="M 579.5,171.5 C 582.152,171.41 584.485,172.076 586.5,173.5C 583.848,173.59 581.515,172.924 579.5,171.5 Z"/></g>
<g><path style="opacity:1" fill="#fefefd" d="M 726.5,170.5 C 740.504,170.333 754.504,170.5 768.5,171C 769.056,171.383 769.389,171.883 769.5,172.5C 768.82,196.161 768.486,219.827 768.5,243.5C 768.167,243.5 767.833,243.5 767.5,243.5C 756.166,238.5 744.833,233.5 733.5,228.5C 730.713,227.523 727.713,227.19 724.5,227.5C 725.017,223.778 725.85,220.112 727,216.5C 727.541,201.159 727.375,185.826 726.5,170.5 Z"/></g>
<g><path style="opacity:1" fill="#4f3424" d="M 644.5,169.5 C 644.5,177.5 644.5,185.5 644.5,193.5C 643.167,193.5 642.5,194.167 642.5,195.5C 641.5,195.5 640.5,195.5 639.5,195.5C 638.592,217.484 638.259,239.484 638.5,261.5C 624.833,261.5 611.167,261.5 597.5,261.5C 594.833,261.5 592.167,261.5 589.5,261.5C 589.5,257.833 589.5,254.167 589.5,250.5C 589.836,225.65 590.836,200.983 592.5,176.5C 592.833,176.5 593.167,176.5 593.5,176.5C 595.102,178.074 597.102,178.741 599.5,178.5C 603.94,180.538 608.607,182.204 613.5,183.5C 620.943,187.422 628.943,189.755 637.5,190.5C 637.517,192.028 638.184,192.528 639.5,192C 641.049,190.786 642.215,189.286 643,187.5C 643.172,181.319 643.672,175.319 644.5,169.5 Z"/></g>
<g><path style="opacity:1" fill="#b0a49d" d="M 593.5,176.5 C 595.898,176.259 597.898,176.926 599.5,178.5C 597.102,178.741 595.102,178.074 593.5,176.5 Z"/></g>
<g><path style="opacity:1" fill="#ab9e96" d="M 599.5,178.5 C 604.703,179.009 609.37,180.676 613.5,183.5C 608.607,182.204 603.94,180.538 599.5,178.5 Z"/></g>
<g><path style="opacity:1" fill="#ce6c00" d="M 642.5,195.5 C 642.5,195.833 642.5,196.167 642.5,196.5C 643.447,205.78 643.78,215.114 643.5,224.5C 643.794,236.883 643.46,249.217 642.5,261.5C 641.167,261.5 639.833,261.5 638.5,261.5C 638.259,239.484 638.592,217.484 639.5,195.5C 640.5,195.5 641.5,195.5 642.5,195.5 Z"/></g>
<g><path style="opacity:1" fill="#2c3306" d="M 644.5,193.5 C 645.922,194.925 647.589,195.925 649.5,196.5C 651.181,198.008 653.181,199.008 655.5,199.5C 660.525,202.068 665.859,204.068 671.5,205.5C 672.609,205.557 673.609,205.89 674.5,206.5C 677.939,208.204 681.605,209.538 685.5,210.5C 689.718,212.441 694.051,214.108 698.5,215.5C 700.515,216.924 702.848,217.59 705.5,217.5C 706.919,218.451 708.585,218.784 710.5,218.5C 709.835,222.424 710.002,226.424 711,230.5C 711.191,228.292 711.691,226.292 712.5,224.5C 712.822,236.747 712.488,248.914 711.5,261C 688.502,261.5 665.502,261.667 642.5,261.5C 643.46,249.217 643.794,236.883 643.5,224.5C 644.657,215.676 644.824,206.676 644,197.5C 643.617,196.944 643.117,196.611 642.5,196.5C 642.5,196.167 642.5,195.833 642.5,195.5C 642.5,194.167 643.167,193.5 644.5,193.5 Z"/></g>
<g><path style="opacity:1" fill="#acaf9e" d="M 655.5,199.5 C 660.554,200.684 665.554,202.184 670.5,204C 671.056,204.383 671.389,204.883 671.5,205.5C 665.859,204.068 660.525,202.068 655.5,199.5 Z"/></g>
<g><path style="opacity:1" fill="#705a4e" d="M 592.5,176.5 C 590.836,200.983 589.836,225.65 589.5,250.5C 589.5,225.5 589.5,200.5 589.5,175.5C 590.791,175.263 591.791,175.596 592.5,176.5 Z"/></g>
<g><path style="opacity:1" fill="#9ea18e" d="M 674.5,206.5 C 678.708,206.677 682.374,208.01 685.5,210.5C 681.605,209.538 677.939,208.204 674.5,206.5 Z"/></g>
<g><path style="opacity:1" fill="#a55d00" d="M 642.5,196.5 C 643.117,196.611 643.617,196.944 644,197.5C 644.824,206.676 644.657,215.676 643.5,224.5C 643.78,215.114 643.447,205.78 642.5,196.5 Z"/></g>
<g><path style="opacity:1" fill="#aaad9c" d="M 698.5,215.5 C 701.152,215.41 703.485,216.076 705.5,217.5C 702.848,217.59 700.515,216.924 698.5,215.5 Z"/></g>
<g><path style="opacity:1" fill="#9fac18" d="M 1345.5,0.5 C 1346.17,0.5 1346.5,0.833333 1346.5,1.5C 1345.98,152.166 1345.65,302.833 1345.5,453.5C 1344.54,302.666 1344.54,151.666 1345.5,0.5 Z"/></g>
<g><path style="opacity:1" fill="#ffeb0c" d="M 733.5,228.5 C 744.833,233.5 756.166,238.5 767.5,243.5C 769.535,245.195 771.868,246.528 774.5,247.5C 775.642,267.123 775.809,286.79 775,306.5C 772.34,307.834 769.506,308.668 766.5,309C 753.66,309.827 740.993,309.66 728.5,308.5C 728.217,307.711 727.717,307.044 727,306.5C 726.966,281.169 727.299,255.835 728,230.5C 729.444,228.845 731.278,228.178 733.5,228.5 Z"/></g>
<g><path style="opacity:1" fill="#8d917a" d="M 769.5,172.5 C 769.996,195.995 769.996,219.662 769.5,243.5C 769.167,243.5 768.833,243.5 768.5,243.5C 768.486,219.827 768.82,196.161 769.5,172.5 Z"/></g>
<g><path style="opacity:1" fill="#dfe493" d="M 767.5,243.5 C 767.833,243.5 768.167,243.5 768.5,243.5C 768.833,243.5 769.167,243.5 769.5,243.5C 771.415,243.216 773.081,243.549 774.5,244.5C 774.5,244.833 774.5,245.167 774.5,245.5C 774.5,246.167 774.5,246.833 774.5,247.5C 771.868,246.528 769.535,245.195 767.5,243.5 Z"/></g>
<g><path style="opacity:1" fill="#85896e" d="M 774.5,245.5 C 774.5,245.167 774.5,244.833 774.5,244.5C 777.152,244.41 779.485,245.076 781.5,246.5C 779.139,246.326 776.806,245.993 774.5,245.5 Z"/></g>
<g><path style="opacity:1" fill="#212415" d="M 816.5,258.5 C 805.806,255.585 795.473,251.919 785.5,247.5C 785.082,246.778 784.416,246.278 783.5,246C 787.829,245.914 792.163,246.248 796.5,247C 800.083,249.528 804.083,250.861 808.5,251C 811.035,253.037 813.702,254.87 816.5,256.5C 817.55,257.429 817.55,258.095 816.5,258.5 Z"/></g>
<g><path style="opacity:1" fill="#787d61" d="M 828.5,263.5 C 831.152,263.41 833.485,264.076 835.5,265.5C 832.848,265.59 830.515,264.924 828.5,263.5 Z"/></g>
<g><path style="opacity:1" fill="#f9fe98" d="M 1352.5,252.5 C 1353.6,260.534 1353.27,268.534 1351.5,276.5C 1351.17,268.316 1351.51,260.316 1352.5,252.5 Z"/></g>
<g><path style="opacity:1" fill="#e5e6d8" d="M 484.5,-0.5 C 774.5,-0.5 1064.5,-0.5 1354.5,-0.5C 1354.5,152.833 1354.5,306.167 1354.5,459.5C 1351.17,459.5 1347.83,459.5 1344.5,459.5C 1342.83,458.833 1341.17,458.167 1339.5,457.5C 1341.5,457.5 1343.5,457.5 1345.5,457.5C 1347.72,457.822 1349.56,457.155 1351,455.5C 1351.5,411.835 1351.67,368.168 1351.5,324.5C 1352.83,309.5 1352.83,294.5 1351.5,279.5C 1351.5,278.5 1351.5,277.5 1351.5,276.5C 1353.27,268.534 1353.6,260.534 1352.5,252.5C 1352.98,235.672 1353.32,218.839 1353.5,202C 1352.8,136.169 1352.3,70.3352 1352,4.5C 1350.74,2.39297 1348.9,1.39297 1346.5,1.5C 1346.5,0.833333 1346.17,0.5 1345.5,0.5C 1058.33,0.833139 771.333,0.499806 484.5,-0.5 Z"/></g>
<g><path style="opacity:1" fill="#2c3307" d="M 588.5,267.5 C 607.167,267.5 625.833,267.5 644.5,267.5C 666.33,268.332 688.33,268.832 710.5,269C 711.38,270.356 711.714,271.856 711.5,273.5C 711.782,278.927 711.449,284.26 710.5,289.5C 709.51,295.31 709.177,301.31 709.5,307.5C 706.615,307.194 703.948,307.527 701.5,308.5C 667.167,308.5 632.833,308.5 598.5,308.5C 595.059,307.903 591.725,307.237 588.5,306.5C 589.115,294.327 589.115,282.327 588.5,270.5C 588.5,269.5 588.5,268.5 588.5,267.5 Z"/></g>
<g><path style="opacity:1" fill="#515324" d="M 644.5,267.5 C 666.836,267.333 689.169,267.5 711.5,268C 712.056,268.383 712.389,268.883 712.5,269.5C 712.768,271.099 712.434,272.432 711.5,273.5C 711.714,271.856 711.38,270.356 710.5,269C 688.33,268.832 666.33,268.332 644.5,267.5 Z"/></g>
<g><path style="opacity:1" fill="#bb7c01" d="M 712.5,269.5 C 713.167,273.833 713.833,278.167 714.5,282.5C 714.573,290.854 714.24,299.188 713.5,307.5C 712.5,307.5 711.5,307.5 710.5,307.5C 710.5,301.5 710.5,295.5 710.5,289.5C 711.449,284.26 711.782,278.927 711.5,273.5C 712.434,272.432 712.768,271.099 712.5,269.5 Z"/></g>
<g><path style="opacity:1" fill="#a0a390" d="M 880.5,283.5 C 883.157,283.935 885.491,284.935 887.5,286.5C 884.654,286.448 882.32,285.448 880.5,283.5 Z"/></g>
<g><path style="opacity:1" fill="#e2c861" d="M 714.5,282.5 C 715.165,285.482 715.498,288.648 715.5,292C 715.621,297.411 714.954,302.577 713.5,307.5C 714.24,299.188 714.573,290.854 714.5,282.5 Z"/></g>
<g><path style="opacity:1" fill="#664f00" d="M 710.5,289.5 C 710.5,295.5 710.5,301.5 710.5,307.5C 710.5,307.833 710.5,308.167 710.5,308.5C 707.5,308.5 704.5,308.5 701.5,308.5C 703.948,307.527 706.615,307.194 709.5,307.5C 709.177,301.31 709.51,295.31 710.5,289.5 Z"/></g>
<g><path style="opacity:1" fill="#818379" d="M 908.5,293.5 C 910.403,293.796 912.07,294.463 913.5,295.5C 911.302,295.88 909.635,295.213 908.5,293.5 Z"/></g>
<g><path style="opacity:1" fill="#9a9b93" d="M 913.5,295.5 C 915.967,295.755 917.967,296.755 919.5,298.5C 917.033,298.245 915.033,297.245 913.5,295.5 Z"/></g>
<g><path style="opacity:1" fill="#bec1b4" d="M 588.5,270.5 C 589.115,282.327 589.115,294.327 588.5,306.5C 587.683,294.668 587.683,282.668 588.5,270.5 Z"/></g>
<g><path style="opacity:1" fill="#808178" d="M 921.5,298.5 C 923.403,298.796 925.07,299.463 926.5,300.5C 924.302,300.88 922.635,300.213 921.5,298.5 Z"/></g>
<g><path style="opacity:1" fill="#fafe9d" d="M 1351.5,279.5 C 1352.83,294.5 1352.83,309.5 1351.5,324.5C 1351.28,309.586 1351.28,294.586 1351.5,279.5 Z"/></g>
<g><path style="opacity:1" fill="#989991" d="M 941.5,306.5 C 944.947,307.083 947.947,308.416 950.5,310.5C 947.053,309.917 944.053,308.584 941.5,306.5 Z"/></g>
<g><path style="opacity:1" fill="#d5d4c9" d="M 598.5,308.5 C 632.833,308.5 667.167,308.5 701.5,308.5C 704.5,308.5 707.5,308.5 710.5,308.5C 708.208,309.466 705.708,310.133 703,310.5C 668.016,309.85 633.183,309.183 598.5,308.5 Z"/></g>
<g><path style="opacity:1" fill="#93938b" d="M 952.5,310.5 C 955.947,311.083 958.947,312.416 961.5,314.5C 958.053,313.917 955.053,312.584 952.5,310.5 Z"/></g>
<g><path style="opacity:1" fill="#93948c" d="M 963.5,314.5 C 965.967,314.755 967.967,315.755 969.5,317.5C 967.033,317.245 965.033,316.245 963.5,314.5 Z"/></g>
<g><path style="opacity:1" fill="#8e8f86" d="M 971.5,317.5 C 973.967,317.755 975.967,318.755 977.5,320.5C 975.033,320.245 973.033,319.245 971.5,317.5 Z"/></g>
<g><path style="opacity:1" fill="#85867d" d="M 979.5,320.5 C 981.403,320.796 983.07,321.463 984.5,322.5C 982.302,322.88 980.635,322.213 979.5,320.5 Z"/></g>
<g><path style="opacity:1" fill="#1b1e0f" d="M 1132.5,379.5 C 1131.51,379.672 1130.84,379.338 1130.5,378.5C 1128.06,377.129 1125.4,376.129 1122.5,375.5C 1118.89,373.852 1115.22,372.519 1111.5,371.5C 1109.97,369.755 1107.97,368.755 1105.5,368.5C 1104.83,368.5 1104.17,368.5 1103.5,368.5C 1101.97,366.755 1099.97,365.755 1097.5,365.5C 1095.17,364.833 1092.83,364.167 1090.5,363.5C 1088.97,361.755 1086.97,360.755 1084.5,360.5C 1082.17,359.833 1079.83,359.167 1077.5,358.5C 1075.97,356.755 1073.97,355.755 1071.5,355.5C 1070.83,355.5 1070.17,355.5 1069.5,355.5C 1065.2,353.065 1060.53,351.398 1055.5,350.5C 1053.01,349.226 1050.34,348.56 1047.5,348.5C 1044.95,346.416 1041.95,345.083 1038.5,344.5C 1027.6,338.864 1016.26,334.197 1004.5,330.5C 1002.97,328.755 1000.97,327.755 998.5,327.5C 993.88,325.84 989.213,324.174 984.5,322.5C 983.07,321.463 981.403,320.796 979.5,320.5C 978.833,320.5 978.167,320.5 977.5,320.5C 975.967,318.755 973.967,317.755 971.5,317.5C 970.833,317.5 970.167,317.5 969.5,317.5C 967.967,315.755 965.967,314.755 963.5,314.5C 962.833,314.5 962.167,314.5 961.5,314.5C 958.947,312.416 955.947,311.083 952.5,310.5C 951.833,310.5 951.167,310.5 950.5,310.5C 947.947,308.416 944.947,307.083 941.5,306.5C 936.643,304.241 931.643,302.241 926.5,300.5C 925.07,299.463 923.403,298.796 921.5,298.5C 920.833,298.5 920.167,298.5 919.5,298.5C 917.967,296.755 915.967,295.755 913.5,295.5C 912.07,294.463 910.403,293.796 908.5,293.5C 906.214,293.405 904.214,292.738 902.5,291.5C 902.082,290.778 901.416,290.278 900.5,290C 905.543,290.006 910.543,290.672 915.5,292C 934.415,301.128 953.749,309.128 973.5,316C 983.235,318.468 992.902,321.135 1002.5,324C 1044.95,342.728 1087.95,360.061 1131.5,376C 1133,377.252 1134.67,378.252 1136.5,379C 1135.21,379.49 1133.87,379.657 1132.5,379.5 Z"/></g>
<g><path style="opacity:1" fill="#95968d" d="M 998.5,327.5 C 1000.97,327.755 1002.97,328.755 1004.5,330.5C 1002.03,330.245 1000.03,329.245 998.5,327.5 Z"/></g>
<g><path style="opacity:1" fill="#9fa099" d="M 1038.5,344.5 C 1041.95,345.083 1044.95,346.416 1047.5,348.5C 1044.05,347.917 1041.05,346.584 1038.5,344.5 Z"/></g>
<g><path style="opacity:1" fill="#30370c" d="M 948.5,352.5 C 956.544,365.078 964.044,378.078 971,391.5C 974.333,395.5 977.667,399.5 981,403.5C 983.654,409.478 986.821,415.144 990.5,420.5C 991.569,422.969 992.902,425.302 994.5,427.5C 996.093,423.701 996.926,419.701 997,415.5C 997.5,393.836 997.667,372.169 997.5,350.5C 1000.83,350.5 1004.17,350.5 1007.5,350.5C 1008.45,355.74 1008.78,361.073 1008.5,366.5C 1008.81,393.532 1008.47,420.532 1007.5,447.5C 1006.17,447.5 1004.83,447.5 1003.5,447.5C 1000.48,447.665 997.482,447.498 994.5,447C 978.364,421.366 962.031,395.866 945.5,370.5C 943.604,369.361 942.604,370.027 942.5,372.5C 942.5,397.5 942.5,422.5 942.5,447.5C 938.5,447.5 934.5,447.5 930.5,447.5C 930.5,415.167 930.5,382.833 930.5,350.5C 936.792,349.947 942.792,350.614 948.5,352.5 Z"/></g>
<g><path style="opacity:1" fill="#30370c" d="M 401.5,364.5 C 404.573,373.815 403.906,382.815 399.5,391.5C 398.069,393.437 396.402,395.27 394.5,397C 390.827,398.376 387.494,400.21 384.5,402.5C 388.238,406.069 391.404,410.069 394,414.5C 400.752,425.07 407.252,435.736 413.5,446.5C 409.354,447.647 405.02,447.814 400.5,447C 393.29,436.084 386.457,424.917 380,413.5C 378.143,410.8 375.643,409.134 372.5,408.5C 370.562,406.837 368.228,406.171 365.5,406.5C 363.143,406.337 360.81,406.503 358.5,407C 357.619,407.708 356.953,408.542 356.5,409.5C 355.858,417.658 355.858,425.992 356.5,434.5C 356.441,437.69 356.107,440.857 355.5,444C 355.392,445.681 354.725,446.848 353.5,447.5C 350.904,446.735 348.237,446.401 345.5,446.5C 345.5,414.5 345.5,382.5 345.5,350.5C 359.541,350.134 373.541,350.634 387.5,352C 394.195,353.86 398.862,358.027 401.5,364.5 Z"/></g>
<g><path style="opacity:1" fill="#30370b" d="M 515.5,354.5 C 515.5,356.833 515.5,359.167 515.5,361.5C 507.167,361.5 498.833,361.5 490.5,361.5C 486.233,361.203 482.066,361.536 478,362.5C 477.5,372.494 477.334,382.494 477.5,392.5C 480.167,392.5 482.833,392.5 485.5,392.5C 486.568,393.434 487.901,393.768 489.5,393.5C 496.321,394.329 503.321,394.829 510.5,395C 511.444,397.719 511.777,400.552 511.5,403.5C 503.833,403.5 496.167,403.5 488.5,403.5C 484.958,403.187 481.625,403.521 478.5,404.5C 477.506,414.987 477.172,425.654 477.5,436.5C 478.5,436.5 479.5,436.5 480.5,436.5C 482.948,437.473 485.615,437.806 488.5,437.5C 497.839,437.334 507.173,437.5 516.5,438C 517.792,441.165 517.792,444.332 516.5,447.5C 499.423,447.818 482.423,447.485 465.5,446.5C 465.5,414.5 465.5,382.5 465.5,350.5C 481.503,350.333 497.503,350.5 513.5,351C 514.823,351.816 515.489,352.983 515.5,354.5 Z"/></g>
<g><path style="opacity:1" fill="#2c3306" d="M 588.5,350.5 C 589.209,351.404 590.209,351.737 591.5,351.5C 591.17,372.007 591.503,392.34 592.5,412.5C 592.5,416.833 592.5,421.167 592.5,425.5C 592.244,429.269 592.577,432.936 593.5,436.5C 594.952,437.302 596.618,437.802 598.5,438C 609.161,438.5 619.828,438.667 630.5,438.5C 630.5,441.5 630.5,444.5 630.5,447.5C 613.833,447.5 597.167,447.5 580.5,447.5C 580.5,415.167 580.5,382.833 580.5,350.5C 583.167,350.5 585.833,350.5 588.5,350.5 Z"/></g>
<g><path style="opacity:1" fill="#5f6716" d="M 588.5,350.5 C 589.833,350.5 591.167,350.5 592.5,350.5C 592.5,371.167 592.5,391.833 592.5,412.5C 591.503,392.34 591.17,372.007 591.5,351.5C 590.209,351.737 589.209,351.404 588.5,350.5 Z"/></g>
<g><path style="opacity:1" fill="#30370a" d="M 749.5,356.5 C 751.555,358.555 753.221,360.888 754.5,363.5C 754.402,365.553 755.069,367.22 756.5,368.5C 756.5,368.833 756.5,369.167 756.5,369.5C 757.275,374.797 757.608,380.13 757.5,385.5C 755.653,392.858 751.986,399.192 746.5,404.5C 742.289,406.098 738.622,408.432 735.5,411.5C 729.5,411.5 723.5,411.5 717.5,411.5C 715.409,411.318 713.409,411.652 711.5,412.5C 710.501,424.148 710.168,435.814 710.5,447.5C 706.817,448.675 703.15,448.675 699.5,447.5C 699.5,415.167 699.5,382.833 699.5,350.5C 711.171,350.333 722.838,350.5 734.5,351C 737.036,351.339 739.536,351.839 742,352.5C 744.164,354.498 746.664,355.832 749.5,356.5 Z"/></g>
<g><path style="opacity:1" fill="#a5a6a0" d="M 1055.5,350.5 C 1060.53,351.398 1065.2,353.065 1069.5,355.5C 1064.42,354.588 1059.75,352.921 1055.5,350.5 Z"/></g>
<g><path style="opacity:1" fill="#31370e" d="M 863.5,352.5 C 864.117,352.611 864.617,352.944 865,353.5C 865.167,355 865.333,356.5 865.5,358C 865.371,359.981 864.704,361.647 863.5,363C 852.172,363.5 840.838,363.667 829.5,363.5C 828.86,373.558 829.527,383.225 831.5,392.5C 832.708,393.234 834.041,393.567 835.5,393.5C 844.235,394.179 853.068,394.846 862,395.5C 863.004,398.993 862.504,402.159 860.5,405C 855.177,405.499 849.844,405.666 844.5,405.5C 840.983,404.49 837.483,403.157 834,401.5C 833.383,400.551 833.549,399.718 834.5,399C 836.221,398.261 837.887,397.427 839.5,396.5C 835.783,395.944 832.617,397.277 830,400.5C 829.168,404.143 830.668,405.81 834.5,405.5C 834.5,406.167 834.167,406.5 833.5,406.5C 832.167,406.5 830.833,406.5 829.5,406.5C 830.043,417.159 830.377,427.825 830.5,438.5C 841.488,437.584 852.488,437.417 863.5,438C 867.054,439.068 868.721,441.568 868.5,445.5C 868.43,446.772 868.097,447.938 867.5,449C 850.503,449.5 833.503,449.667 816.5,449.5C 816.5,444.833 816.5,440.167 816.5,435.5C 817.498,407.672 817.831,379.672 817.5,351.5C 832.798,352.453 848.131,352.786 863.5,352.5 Z"/></g>
<g><path style="opacity:1" fill="#ebf63d" d="M 1009.5,351.5 C 1011.23,352.026 1012.56,353.026 1013.5,354.5C 1014.11,362.631 1014.77,370.631 1015.5,378.5C 1015.5,396.833 1015.5,415.167 1015.5,433.5C 1014.01,437.236 1013.34,441.236 1013.5,445.5C 1012.94,446.79 1011.94,447.623 1010.5,448C 1007.96,448.796 1005.63,448.629 1003.5,447.5C 1004.83,447.5 1006.17,447.5 1007.5,447.5C 1008.47,420.532 1008.81,393.532 1008.5,366.5C 1009.49,361.695 1009.82,356.695 1009.5,351.5 Z"/></g>
<g><path style="opacity:1" fill="#f5fe50" d="M 594.5,353.5 C 596.173,354.343 597.34,355.676 598,357.5C 598.243,383.994 599.077,410.327 600.5,436.5C 598.167,436.5 595.833,436.5 593.5,436.5C 592.577,432.936 592.244,429.269 592.5,425.5C 593.167,401.5 593.833,377.5 594.5,353.5 Z"/></g>
<g><path style="opacity:1" fill="#95968e" d="M 1071.5,355.5 C 1073.97,355.755 1075.97,356.755 1077.5,358.5C 1075.03,358.245 1073.03,357.245 1071.5,355.5 Z"/></g>
<g><path style="opacity:1" fill="#e8f24c" d="M 948.5,352.5 C 951.724,355.218 954.891,358.218 958,361.5C 962,366.833 966,372.167 970,377.5C 971.044,379.715 971.71,382.048 972,384.5C 975.422,389.678 979.089,394.678 983,399.5C 986,406.334 988.5,413.334 990.5,420.5C 986.821,415.144 983.654,409.478 981,403.5C 977.667,399.5 974.333,395.5 971,391.5C 964.044,378.078 956.544,365.078 948.5,352.5 Z"/></g>
<g><path style="opacity:1" fill="#5c6140" d="M 863.5,352.5 C 848.131,352.786 832.798,352.453 817.5,351.5C 817.831,379.672 817.498,407.672 816.5,435.5C 816.5,407.167 816.5,378.833 816.5,350.5C 832.322,351.07 847.989,351.737 863.5,352.5 Z"/></g>
<g><path style="opacity:1" fill="#f3f7ae" d="M 749.5,356.5 C 754.113,358.456 757.78,361.456 760.5,365.5C 758.142,365.747 756.142,365.081 754.5,363.5C 753.221,360.888 751.555,358.555 749.5,356.5 Z"/></g>
<g><path style="opacity:1" fill="#8e9a24" d="M 1007.5,350.5 C 1008.49,350.328 1009.16,350.662 1009.5,351.5C 1009.82,356.695 1009.49,361.695 1008.5,366.5C 1008.78,361.073 1008.45,355.74 1007.5,350.5 Z"/></g>
<g><path style="opacity:1" fill="#fafafa" d="M 358.5,361.5 C 366.561,361.179 374.561,361.679 382.5,363C 387.099,364.598 389.932,367.765 391,372.5C 392.335,387.657 385.502,395.324 370.5,395.5C 366.833,395.333 363.167,395.167 359.5,395C 359,394.5 358.5,394 358,393.5C 357.192,382.757 357.358,372.09 358.5,361.5 Z"/></g>
<g><path style="opacity:1" fill="#babdaf" d="M 515.5,354.5 C 516.473,356.948 516.806,359.615 516.5,362.5C 507.833,362.5 499.167,362.5 490.5,362.5C 490.5,362.167 490.5,361.833 490.5,361.5C 498.833,361.5 507.167,361.5 515.5,361.5C 515.5,359.167 515.5,356.833 515.5,354.5 Z"/></g>
<g><path style="opacity:1" fill="#999b93" d="M 1084.5,360.5 C 1086.97,360.755 1088.97,361.755 1090.5,363.5C 1088.03,363.245 1086.03,362.245 1084.5,360.5 Z"/></g>
<g><path style="opacity:1" fill="#eef84c" d="M 490.5,361.5 C 490.5,361.833 490.5,362.167 490.5,362.5C 487.881,362.232 485.381,362.565 483,363.5C 482.333,372.5 482.333,381.5 483,390.5C 483.995,391.066 484.828,391.733 485.5,392.5C 482.833,392.5 480.167,392.5 477.5,392.5C 477.334,382.494 477.5,372.494 478,362.5C 482.066,361.536 486.233,361.203 490.5,361.5 Z"/></g>
<g><path style="opacity:1" fill="#f4fe47" d="M 714.5,363.5 C 713.284,368.566 713.617,373.566 715.5,378.5C 715.5,385.5 715.5,392.5 715.5,399.5C 713.901,399.768 712.568,399.434 711.5,398.5C 711.5,386.5 711.5,374.5 711.5,362.5C 712.791,362.263 713.791,362.596 714.5,363.5 Z"/></g>
<g><path style="opacity:1" fill="#fafaf8" d="M 715.5,361.5 C 723.023,360.927 730.356,361.76 737.5,364C 740.739,365.736 743.073,368.236 744.5,371.5C 745.833,376.167 745.833,380.833 744.5,385.5C 743.791,392.422 740.124,396.922 733.5,399C 727.479,400.616 721.479,400.783 715.5,399.5C 715.5,392.5 715.5,385.5 715.5,378.5C 715.249,373.493 714.916,368.493 714.5,363.5C 715.338,363.158 715.672,362.492 715.5,361.5 Z"/></g>
<g><path style="opacity:1" fill="#c0cd32" d="M 715.5,361.5 C 715.672,362.492 715.338,363.158 714.5,363.5C 713.791,362.596 712.791,362.263 711.5,362.5C 711.5,374.5 711.5,386.5 711.5,398.5C 710.505,386.345 710.171,374.011 710.5,361.5C 712.167,361.5 713.833,361.5 715.5,361.5 Z"/></g>
<g><path style="opacity:1" fill="#f9fea5" d="M 1013.5,354.5 C 1014.12,354.611 1014.62,354.944 1015,355.5C 1015.5,363.159 1015.67,370.826 1015.5,378.5C 1014.77,370.631 1014.11,362.631 1013.5,354.5 Z"/></g>
<g><path style="opacity:1" fill="#e7e966" d="M 754.5,363.5 C 756.142,365.081 758.142,365.747 760.5,365.5C 760.5,366.833 760.5,368.167 760.5,369.5C 759.206,368.71 758.039,367.71 757,366.5C 756.536,367.094 756.369,367.761 756.5,368.5C 755.069,367.22 754.402,365.553 754.5,363.5 Z"/></g>
<g><path style="opacity:1" fill="#9fa098" d="M 1097.5,365.5 C 1099.97,365.755 1101.97,366.755 1103.5,368.5C 1101.03,368.245 1099.03,367.245 1097.5,365.5 Z"/></g>
<g><path style="opacity:1" fill="#f4e413" d="M 401.5,364.5 C 403.993,366.658 405.66,369.324 406.5,372.5C 406.5,372.833 406.5,373.167 406.5,373.5C 406.827,378.544 406.494,383.544 405.5,388.5C 404.278,390.978 402.278,391.978 399.5,391.5C 403.906,382.815 404.573,373.815 401.5,364.5 Z"/></g>
<g><path style="opacity:1" fill="#f7e60d" d="M 760.5,369.5 C 761.117,369.611 761.617,369.944 762,370.5C 763.256,379.772 762.423,388.772 759.5,397.5C 756.735,399.06 754.069,400.894 751.5,403C 749.846,403.608 748.179,404.108 746.5,404.5C 751.986,399.192 755.653,392.858 757.5,385.5C 758.163,383.527 758.496,381.361 758.5,379C 758.672,375.523 758.006,372.356 756.5,369.5C 756.5,369.167 756.5,368.833 756.5,368.5C 756.369,367.761 756.536,367.094 757,366.5C 758.039,367.71 759.206,368.71 760.5,369.5 Z"/></g>
<g><path style="opacity:1" fill="#999a93" d="M 1105.5,368.5 C 1107.97,368.755 1109.97,369.755 1111.5,371.5C 1109.03,371.245 1107.03,370.245 1105.5,368.5 Z"/></g>
<g><path style="opacity:1" fill="#c2d032" d="M 592.5,350.5 C 593.906,350.973 594.573,351.973 594.5,353.5C 593.833,377.5 593.167,401.5 592.5,425.5C 592.5,421.167 592.5,416.833 592.5,412.5C 592.5,391.833 592.5,371.167 592.5,350.5 Z"/></g>
<g><path style="opacity:1" fill="#999c88" d="M 744.5,371.5 C 745.997,373.29 746.664,375.456 746.5,378C 746.592,380.821 745.926,383.321 744.5,385.5C 745.833,380.833 745.833,376.167 744.5,371.5 Z"/></g>
<g><path style="opacity:1" fill="#a3a49d" d="M 1122.5,375.5 C 1125.4,376.129 1128.06,377.129 1130.5,378.5C 1127.28,378.655 1124.62,377.655 1122.5,375.5 Z"/></g>
<g><path style="opacity:1" fill="#fafea6" d="M 714.5,363.5 C 714.916,368.493 715.249,373.493 715.5,378.5C 713.617,373.566 713.284,368.566 714.5,363.5 Z"/></g>
<g><path style="opacity:1" fill="#fafe9e" d="M 406.5,373.5 C 406.5,373.167 406.5,372.833 406.5,372.5C 407.809,374.571 408.475,377.071 408.5,380C 408.497,382.69 408.164,385.19 407.5,387.5C 407.819,382.637 407.486,377.97 406.5,373.5 Z"/></g>
<g><path style="opacity:1" fill="#a29900" d="M 756.5,369.5 C 758.006,372.356 758.672,375.523 758.5,379C 758.496,381.361 758.163,383.527 757.5,385.5C 757.608,380.13 757.275,374.797 756.5,369.5 Z"/></g>
<g><path style="opacity:1" fill="#ecf642" d="M 942.5,372.5 C 944.257,378.248 945.423,384.248 946,390.5C 946.383,391.056 946.883,391.389 947.5,391.5C 947.5,397.167 947.5,402.833 947.5,408.5C 947.5,414.5 947.5,420.5 947.5,426.5C 945.628,433.099 944.628,440.099 944.5,447.5C 943.833,447.5 943.167,447.5 942.5,447.5C 942.5,422.5 942.5,397.5 942.5,372.5 Z"/></g>
<g><path style="opacity:1" fill="#fdfec4" d="M 760.5,365.5 C 761.966,366.347 762.8,367.68 763,369.5C 763.667,376.833 763.667,384.167 763,391.5C 762.613,394.599 761.446,397.266 759.5,399.5C 759.5,398.833 759.5,398.167 759.5,397.5C 762.423,388.772 763.256,379.772 762,370.5C 761.617,369.944 761.117,369.611 760.5,369.5C 760.5,368.167 760.5,366.833 760.5,365.5 Z"/></g>
<g><path style="opacity:1" fill="#fafcc4" d="M 835.5,393.5 C 834.041,393.567 832.708,393.234 831.5,392.5C 829.979,389.295 830.312,386.295 832.5,383.5C 833.086,383.709 833.586,384.043 834,384.5C 834.259,387.587 834.759,390.587 835.5,393.5 Z"/></g>
<g><path style="opacity:1" fill="#666a4b" d="M 489.5,393.5 C 497.167,393.5 504.833,393.5 512.5,393.5C 512.5,397.167 512.5,400.833 512.5,404.5C 504.833,404.5 497.167,404.5 489.5,404.5C 488.833,404.5 488.5,404.167 488.5,403.5C 496.167,403.5 503.833,403.5 511.5,403.5C 511.777,400.552 511.444,397.719 510.5,395C 503.321,394.829 496.321,394.329 489.5,393.5 Z"/></g>
<g><path style="opacity:1" fill="#fdfee1" d="M 947.5,391.5 C 948.41,398.658 949.077,405.992 949.5,413.5C 949.495,415.696 949.162,417.696 948.5,419.5C 948.815,415.629 948.482,411.962 947.5,408.5C 947.5,402.833 947.5,397.167 947.5,391.5 Z"/></g>
<g><path style="opacity:1" fill="#403218" d="M 844.5,405.5 C 842.5,405.5 840.5,405.5 838.5,405.5C 837.167,405.5 835.833,405.5 834.5,405.5C 830.668,405.81 829.168,404.143 830,400.5C 832.617,397.277 835.783,395.944 839.5,396.5C 837.887,397.427 836.221,398.261 834.5,399C 833.549,399.718 833.383,400.551 834,401.5C 837.483,403.157 840.983,404.49 844.5,405.5 Z"/></g>
<g><path style="opacity:1" fill="#e9f342" d="M 759.5,397.5 C 759.5,398.167 759.5,398.833 759.5,399.5C 756.527,401.806 753.86,404.473 751.5,407.5C 747.39,407.701 743.724,408.701 740.5,410.5C 738.784,410.629 737.117,410.962 735.5,411.5C 738.622,408.432 742.289,406.098 746.5,404.5C 748.179,404.108 749.846,403.608 751.5,403C 754.069,400.894 756.735,399.06 759.5,397.5 Z"/></g>
<g><path style="opacity:1" fill="#fafe9f" d="M 407.5,389.5 C 406.922,396.086 403.589,400.753 397.5,403.5C 396.614,404.325 396.281,405.325 396.5,406.5C 395.883,406.389 395.383,406.056 395,405.5C 394.751,406.624 394.251,407.624 393.5,408.5C 392.353,406.235 392.186,403.902 393,401.5C 398.34,397.983 403.173,393.983 407.5,389.5 Z"/></g>
<g><path style="opacity:1" fill="#f1fb49" d="M 478.5,404.5 C 480.357,406.282 481.357,408.615 481.5,411.5C 482.063,419.554 482.73,427.554 483.5,435.5C 482.791,436.404 481.791,436.737 480.5,436.5C 479.5,436.5 478.5,436.5 477.5,436.5C 477.172,425.654 477.506,414.987 478.5,404.5 Z"/></g>
<g><path style="opacity:1" fill="#c6c7ae" d="M 365.5,406.5 C 368.228,406.171 370.562,406.837 372.5,408.5C 368.833,408.5 365.167,408.5 361.5,408.5C 362.833,407.833 364.167,407.167 365.5,406.5 Z"/></g>
<g><path style="opacity:1" fill="#f2fa61" d="M 834.5,405.5 C 835.833,405.5 837.167,405.5 838.5,405.5C 836.887,408.132 835.22,410.798 833.5,413.5C 830.852,411.132 830.852,408.798 833.5,406.5C 834.167,406.5 834.5,406.167 834.5,405.5 Z"/></g>
<g><path style="opacity:1" fill="#c9c00b" d="M 365.5,406.5 C 364.167,407.167 362.833,407.833 361.5,408.5C 360.669,421.327 360.169,434.327 360,447.5C 357.726,448.811 355.56,448.811 353.5,447.5C 354.725,446.848 355.392,445.681 355.5,444C 356.107,440.857 356.441,437.69 356.5,434.5C 357.334,426.335 357.334,418.002 356.5,409.5C 356.953,408.542 357.619,407.708 358.5,407C 360.81,406.503 363.143,406.337 365.5,406.5 Z"/></g>
<g><path style="opacity:1" fill="#eef849" d="M 406.5,373.5 C 407.486,377.97 407.819,382.637 407.5,387.5C 407.5,388.167 407.5,388.833 407.5,389.5C 403.173,393.983 398.34,397.983 393,401.5C 392.186,403.902 392.353,406.235 393.5,408.5C 394.251,407.624 394.751,406.624 395,405.5C 395.383,406.056 395.883,406.389 396.5,406.5C 398.132,409.814 399.799,413.147 401.5,416.5C 403.228,422.293 406.228,427.293 410.5,431.5C 412.939,436.59 414.439,441.924 415,447.5C 414.617,446.944 414.117,446.611 413.5,446.5C 407.252,435.736 400.752,425.07 394,414.5C 391.404,410.069 388.238,406.069 384.5,402.5C 387.494,400.21 390.827,398.376 394.5,397C 396.402,395.27 398.069,393.437 399.5,391.5C 402.278,391.978 404.278,390.978 405.5,388.5C 406.494,383.544 406.827,378.544 406.5,373.5 Z"/></g>
<g><path style="opacity:1" fill="#d3da74" d="M 478.5,404.5 C 481.625,403.521 484.958,403.187 488.5,403.5C 488.5,404.167 488.833,404.5 489.5,404.5C 486.972,405.166 484.306,405.832 481.5,406.5C 482.735,408.316 482.735,409.983 481.5,411.5C 481.357,408.615 480.357,406.282 478.5,404.5 Z"/></g>
<g><path style="opacity:1" fill="#f9fe9b" d="M 751.5,407.5 C 751.389,408.117 751.056,408.617 750.5,409C 747.243,410.043 743.91,410.543 740.5,410.5C 743.724,408.701 747.39,407.701 751.5,407.5 Z"/></g>
<g><path style="opacity:1" fill="#525400" d="M 356.5,409.5 C 357.334,418.002 357.334,426.335 356.5,434.5C 355.858,425.992 355.858,417.658 356.5,409.5 Z"/></g>
<g><path style="opacity:1" fill="#d5cf33" d="M 717.5,411.5 C 716.617,416.103 716.283,420.77 716.5,425.5C 715.679,422.359 715.179,419.025 715,415.5C 714.29,414.027 713.124,413.36 711.5,413.5C 711.828,425.012 711.495,436.346 710.5,447.5C 710.168,435.814 710.501,424.148 711.5,412.5C 713.409,411.652 715.409,411.318 717.5,411.5 Z"/></g>
<g><path style="opacity:1" fill="#fdf028" d="M 716.5,425.5 C 717.778,431.713 717.611,438.046 716,444.5C 714.816,447.339 712.983,448.339 710.5,447.5C 711.495,436.346 711.828,425.012 711.5,413.5C 713.124,413.36 714.29,414.027 715,415.5C 715.179,419.025 715.679,422.359 716.5,425.5 Z"/></g>
<g><path style="opacity:1" fill="#fafe9b" d="M 401.5,416.5 C 405.741,420.631 408.741,425.631 410.5,431.5C 406.228,427.293 403.228,422.293 401.5,416.5 Z"/></g>
<g><path style="opacity:1" fill="#fbfeb9" d="M 947.5,408.5 C 948.482,411.962 948.815,415.629 948.5,419.5C 949.72,427.982 949.72,436.315 948.5,444.5C 948.823,438.31 948.49,432.31 947.5,426.5C 947.5,420.5 947.5,414.5 947.5,408.5 Z"/></g>
<g><path style="opacity:1" fill="#b3b68c" d="M 483.5,435.5 C 485.306,436.024 486.972,436.691 488.5,437.5C 485.615,437.806 482.948,437.473 480.5,436.5C 481.791,436.737 482.791,436.404 483.5,435.5 Z"/></g>
<g><path style="opacity:1" fill="#fcf501" d="M 947.5,426.5 C 948.49,432.31 948.823,438.31 948.5,444.5C 947.764,446.229 946.43,447.229 944.5,447.5C 944.628,440.099 945.628,433.099 947.5,426.5 Z"/></g>
<g><path style="opacity:1" fill="#545932" d="M 593.5,436.5 C 595.833,436.5 598.167,436.5 600.5,436.5C 610.653,437.494 620.986,437.828 631.5,437.5C 631.813,441.042 631.479,444.375 630.5,447.5C 630.5,444.5 630.5,441.5 630.5,438.5C 619.828,438.667 609.161,438.5 598.5,438C 596.618,437.802 594.952,437.302 593.5,436.5 Z"/></g>
<g><path style="opacity:1" fill="#fbfebe" d="M 1015.5,433.5 C 1015.8,437.79 1015.14,441.79 1013.5,445.5C 1013.34,441.236 1014.01,437.236 1015.5,433.5 Z"/></g>
<g><path style="opacity:1" fill="#d1d3c9" d="M 465.5,446.5 C 482.423,447.485 499.423,447.818 516.5,447.5C 508.173,448.166 499.673,448.5 491,448.5C 482.139,448.498 473.639,447.831 465.5,446.5 Z"/></g>
</svg>
